<svg width="233" height="72" viewBox="0 0 233 72" fill="none" xmlns="http://www.w3.org/2000/svg">
<path fill-rule="evenodd" clip-rule="evenodd" d="M129.914 19.5756C129.628 18.2726 128.922 17.3721 128.179 16.6248C126.863 15.3027 125.185 14.6512 122.267 14.7279C120.493 14.7662 115.897 15.226 113.132 15.456C112.331 15.5135 111.606 15.5901 111.606 15.5901L111.53 16.1841L106.705 52.4747C106.705 52.4747 109.184 52.3789 110.1 52.3214C112.121 52.1681 113.17 51.0568 113.494 49.0641C113.666 48.0294 114.124 44.1589 114.143 43.9098L114.963 37.8358H114.944L117.194 21.0509C117.194 21.0509 120.055 20.7252 120.932 20.6869C122.972 20.6102 123.831 21.5874 123.602 23.5802C123.525 24.2125 122.305 33.2181 122.152 34.406C121.866 36.4754 120.36 37.4526 118.662 37.6634C116.965 37.8741 117.556 37.8167 116.774 37.9125C116.698 37.9316 116.603 37.9316 116.526 37.9316L118.147 43.6607C118.147 43.6607 118.147 43.6607 118.167 43.6607L118.243 43.9481C118.243 43.9481 119.311 47.742 119.635 48.7767C120.264 50.6927 121.37 51.6699 123.545 51.6125C124.46 51.5933 126.92 51.2676 126.92 51.2676L123.831 41.8979C127.416 40.5567 128.121 36.9927 128.446 34.8659C128.865 31.7235 129.266 29.0218 129.952 23.7335C130.181 21.9707 130.143 20.6102 129.914 19.5756Z" fill="white"/>
<path fill-rule="evenodd" clip-rule="evenodd" d="M23.9948 25.784C23.7088 24.4811 23.0031 23.5806 22.2594 22.8333C20.9435 21.5112 19.2653 20.8597 16.3474 20.9364C14.5738 20.9747 9.72986 21.4537 7.21251 21.7028C5.99198 21.8178 5.68684 21.8944 5.68684 21.8944L5.61056 22.5459L0.785645 59.0089C0.785645 59.0089 3.26485 58.9131 4.18025 58.8556C6.20176 58.7023 7.19344 57.591 7.51764 55.5983C7.59393 55.1384 9.06238 43.9677 9.06238 43.9677L11.2937 27.2786C11.2937 27.2786 14.1543 26.9529 15.0315 26.9145C17.0721 26.8379 17.9303 27.8151 17.7015 29.8078C17.6252 30.4401 16.4809 39.3499 16.3093 40.5187C15.9279 43.0288 14.4213 43.4886 12.6096 43.7569C12.3426 43.7761 12.0946 43.7952 11.8467 43.8335C11.389 43.8527 11.0839 43.891 11.0839 43.891C11.0839 43.891 10.7788 43.8527 10.7788 43.9293C10.6071 45.7305 11.0267 46.861 11.5607 47.5699C12.2853 48.5854 13.7347 49.2177 16.4237 48.8345C18.5215 48.413 19.5132 47.819 20.5049 46.6693C21.6873 45.3089 22.2785 43.0096 22.5836 40.9977C23.0031 37.8554 23.3464 35.2687 24.033 29.9803C24.2809 28.1792 24.2237 26.8187 23.9948 25.784Z" fill="white"/>
<path fill-rule="evenodd" clip-rule="evenodd" d="M38.3742 19.0203C35.2847 19.2119 28.0569 20.3041 27.0461 27.8726C26.7982 29.7121 24.586 47.0718 24.319 49.122C23.2319 57.6486 30.2691 57.936 32.9581 57.8402C35.7233 57.7252 43.2182 56.9588 44.4196 47.5891C44.7057 45.8072 45.1825 42.0516 45.1443 42.3199C45.8881 36.6866 46.7463 29.7504 46.9942 27.8535C48.0812 19.1736 40.7771 18.8862 38.3742 19.0203ZM40.9869 27.796C40.9106 28.4474 38.5077 46.9376 38.2979 48.1639C38.0881 49.3902 37.0392 51.3063 33.7781 51.4788C31.0319 51.6129 30.2881 50.3483 30.4598 48.5855C30.5742 47.4933 32.8436 29.827 33.0916 28.1983C33.3013 26.8571 34.4647 25.1135 37.1727 24.9602C40.3957 24.7877 41.1967 26.129 40.9869 27.796Z" fill="white"/>
<path fill-rule="evenodd" clip-rule="evenodd" d="M85.7653 16.9508C83.534 17.2765 82.4851 18.292 81.7413 20.2081C81.3409 21.2236 75.2954 38.9474 75.2954 38.9474L73.4074 48.5853L74.0749 39.0049C74.0749 39.0049 72.8734 20.4955 72.8353 20.2081C72.6636 18.9627 71.7482 17.7555 69.7458 17.8896C69.4788 17.9088 68.5634 17.9854 68.3346 17.9854C65.9698 18.1196 65.0353 19.2884 64.2915 21.3578C64.0246 22.0859 57.7693 40.327 57.7693 40.327L55.8622 49.8882L56.5488 40.3653C56.5488 40.3653 55.4999 22.5841 55.4427 21.9326C55.3092 19.9399 54.2984 18.8285 52.296 18.886C51.495 18.9052 48.6535 19.2309 48.6535 19.2309L51.3425 55.6365C51.3425 55.6365 55.0422 55.4832 56.1102 55.4257C58.4749 55.2916 59.4666 54.0845 60.0387 52.1109C60.382 50.9421 66.4847 33.4674 66.4847 33.4674L68.5634 23.3122L67.6289 33.3908L69.0402 54.7168C69.0402 54.7168 72.2441 54.5443 73.3883 54.4868C75.448 54.391 76.7448 53.2031 77.4123 51.2295C77.8318 50.0224 89.713 16.7592 89.713 16.7592C89.713 16.7592 86.5853 16.8166 85.7653 16.9508Z" fill="white"/>
<path fill-rule="evenodd" clip-rule="evenodd" d="M93.8131 16.3568C91.9823 16.5292 91.0288 17.6406 90.7809 19.7291C90.6855 20.5913 86.2802 53.7396 86.2802 53.7396C86.2802 53.7396 100.431 53.0306 100.888 53.0115C103.005 52.8773 104.054 51.651 104.34 49.5817C104.436 48.8727 104.741 46.765 104.741 46.765L93.4889 47.359L94.7667 37.6445C94.7667 37.6445 99.3055 37.3762 100.221 37.3379C102.281 37.2229 103.291 36.0924 103.52 34.8661C103.73 33.8123 103.997 31.1873 103.997 31.1873L95.5486 31.6088L96.8645 22.1242C96.8645 22.1242 104.55 21.7601 105.561 21.7026C107.239 21.626 108.288 20.6105 108.555 18.3303C108.65 17.3723 108.917 15.6287 108.917 15.6287C108.917 15.6287 95.129 16.2418 93.8131 16.3568Z" fill="white"/>
<path fill-rule="evenodd" clip-rule="evenodd" d="M190.331 11.3177C188.309 11.471 187.26 12.5823 186.936 14.5751C186.478 18.0623 186.288 19.9018 186.288 19.9018L184.571 33.9083L184.19 43.0097L183.122 33.9467L180.299 16.3187C180.299 16.3187 180.185 15.763 180.051 15.0924C179.651 13.1188 178.564 11.9692 176.561 12.0842C175.341 12.1608 175.932 12.1225 173.834 12.2374C171.66 12.3524 170.306 13.617 170.02 15.6672C168.895 24.0597 165.558 49.6777 165.558 49.6777C165.558 49.6777 168.037 49.5819 168.952 49.5244C170.974 49.3711 172.023 48.2598 172.347 46.2671C172.518 45.2324 172.976 41.2086 172.995 40.9404L174.712 26.9338L175.131 17.8707L176.161 26.8955L179.803 48.8346C179.803 48.8346 185.029 48.643 183.846 48.7005C186.116 48.5855 186.898 48.4706 185.773 48.5281C187.832 48.4323 188.938 47.1868 189.205 45.1557C190.311 36.9741 193.725 11.2028 193.725 11.2028C193.725 11.2028 191.246 11.2411 190.331 11.3177Z" fill="white"/>
<path fill-rule="evenodd" clip-rule="evenodd" d="M199.427 41.8216L200.705 32.107C200.705 32.107 205.244 31.8388 206.159 31.8005C208.219 31.6855 209.211 30.555 209.459 29.3287C209.668 28.2749 209.935 25.6498 209.935 25.6498L201.487 26.0714L202.803 16.5868C202.803 16.5868 204.882 16.4718 205.892 16.4335C207.571 16.3568 208.619 15.3413 208.886 13.0612C208.982 12.1031 209.249 10.3595 209.249 10.3595C209.249 10.3595 201.086 10.7236 199.771 10.8577C197.94 11.0301 196.986 12.1415 196.738 14.23C196.643 15.0922 192.238 48.2405 192.238 48.2405C192.238 48.2405 206.388 47.5315 206.846 47.5124C208.963 47.3782 210.012 46.1519 210.298 44.0826C210.393 43.3736 210.698 41.2659 210.698 41.2659L199.427 41.8216Z" fill="white"/>
<path fill-rule="evenodd" clip-rule="evenodd" d="M214.455 9.99541C212.624 10.1679 211.671 11.2217 211.423 13.3102C211.404 13.4444 211.251 14.594 211.061 16.1077C211.061 16.1077 214.455 15.9353 218.098 15.7628L213.921 47.0716C213.921 47.0716 216.4 46.9758 217.316 46.9184C219.337 46.7651 220.386 45.6537 220.71 43.661C220.882 42.588 221.416 38.1235 221.416 38.1235C221.416 38.1235 221.416 38.1235 221.435 38.1235L222.198 32.0879L224.448 15.4563C226.565 15.3413 228.472 15.2646 228.968 15.2455C230.646 15.1688 231.466 14.0958 231.714 11.8157C231.81 10.8577 232.077 9.11401 232.077 9.11401C232.077 9.11401 215.771 9.86129 214.455 9.99541Z" fill="white"/>
<path d="M7.26968 61.3656C7.32689 61.3656 7.3841 61.4231 7.3841 61.4997L7.28875 62.1895C7.26968 62.2662 7.19339 62.3236 7.13618 62.3236L2.12056 62.362L1.701 65.466L3.91321 65.4469C4.56162 65.4469 5.36259 65.5044 5.95379 65.7918C6.65941 66.1367 7.07897 66.7115 7.07897 67.7653C7.07897 68.8575 6.48777 69.6814 5.70587 70.0838C5.15282 70.3904 4.46627 70.4862 3.79879 70.5053L0.118121 70.5437C0.0418379 70.5437 -0.0153746 70.5053 0.0036962 70.4287L1.18609 61.5764C1.18609 61.5189 1.2433 61.4422 1.31958 61.4422L7.26968 61.3656ZM5.26724 66.539C4.90489 66.3666 4.37091 66.2708 3.83693 66.29L1.62472 66.3091L1.20516 69.6431L3.81786 69.6239C4.3137 69.6239 4.7714 69.5281 5.13375 69.3365C5.66773 69.0491 6.04914 68.5318 6.03007 67.842C6.03007 67.2288 5.80122 66.7881 5.26724 66.539Z" fill="#C1C2D4"/>
<path d="M9.65367 64.125C9.67274 64.0483 9.71088 63.9908 9.78717 63.9908H10.5119C10.5691 63.9908 10.6263 64.0483 10.6263 64.125L10.283 66.6159L12.0185 66.5967C12.4571 66.5967 12.9911 66.6542 13.3725 66.8458C13.8683 67.0757 14.1544 67.4589 14.1735 68.1679C14.1735 68.896 13.773 69.4708 13.239 69.7391C12.8766 69.9307 12.3999 70.0073 11.9422 70.0265L9.00526 70.0457C8.94805 70.0457 8.89084 69.9882 8.89084 69.9307L9.65367 64.125ZM11.8468 69.3367C12.1519 69.3367 12.438 69.2792 12.6669 69.1643C12.9911 68.9918 13.239 68.6469 13.239 68.2062C13.239 67.823 13.0864 67.5739 12.7622 67.4206C12.5334 67.3057 12.1901 67.2482 11.8468 67.2482L10.2067 67.2673L9.93973 69.3367H11.8468ZM15.661 64.0675C15.68 64.01 15.7182 63.9333 15.8135 63.9333H16.5382C16.5954 63.9333 16.6527 63.9908 16.6527 64.0675L15.8898 69.8541C15.8898 69.9115 15.8326 69.969 15.7373 69.969H15.0126C14.9554 69.969 14.8981 69.9115 14.8981 69.8541L15.661 64.0675Z" fill="#C1C2D4"/>
<path d="M23.1367 64.4315C23.0795 64.5082 23.0413 64.5082 22.946 64.4699C22.6218 64.3166 22.1832 64.2399 21.7255 64.2591C21.058 64.2591 20.3905 64.5465 19.9137 65.0447C19.437 65.5045 19.1509 66.1752 19.1509 66.9033C19.1509 67.4781 19.3416 67.9571 19.6467 68.3212C20.0091 68.7044 20.524 68.9152 21.1343 68.9152C21.6873 68.9152 22.1832 68.781 22.5455 68.5511C22.6409 68.4745 22.6981 68.4936 22.7362 68.5703L22.946 69.0493C22.9651 69.1068 22.946 69.1643 22.8697 69.2026C22.3357 69.5475 21.6682 69.7008 20.9054 69.7199C20.1044 69.7199 19.4179 69.4517 18.922 68.9535C18.4453 68.4936 18.1592 67.823 18.1592 67.0182C18.1592 65.9836 18.5597 65.1022 19.2081 64.489C19.8947 63.8376 20.8101 63.4543 21.7445 63.4352C22.3929 63.4352 22.946 63.5501 23.4037 63.7609C23.4609 63.7801 23.48 63.8567 23.4418 63.9142L23.1367 64.4315Z" fill="#C1C2D4"/>
<path d="M30.765 63.1667C30.8413 63.1667 30.8795 63.2051 30.8795 63.3009L30.7841 63.914C30.765 63.9907 30.7078 64.029 30.6315 64.029L28.3812 64.0481L27.7137 69.1066C27.6946 69.2024 27.6565 69.2216 27.5611 69.2216H26.8364C26.7602 69.2216 26.722 69.1641 26.722 69.1066L27.3895 64.0481L25.1391 64.0673C25.0819 64.0673 25.0247 64.0098 25.0247 63.9332L25.1201 63.3392C25.1201 63.2817 25.1773 63.2051 25.2536 63.2051L30.765 63.1667Z" fill="#C1C2D4"/>
<path d="M33.1298 63.3586C33.5875 62.9946 34.1405 62.7072 34.8843 62.7072C35.5518 62.7072 36.1048 62.9371 36.5053 63.3586C36.9249 63.8185 37.1728 64.4508 37.1728 65.2555C37.1918 66.4244 36.8104 67.3249 36.162 67.9381C35.4755 68.6087 34.4838 68.9536 33.3968 68.9727C33.3205 68.9727 32.8818 68.9536 32.5767 68.8961L32.1762 71.8852C32.1762 71.9427 32.119 72.0002 32.0427 72.0002H31.318C31.2418 72.0002 31.2036 71.9427 31.2036 71.866L32.3669 62.9754C32.386 62.8988 32.4241 62.8413 32.5195 62.8413H33.0725C33.1298 62.8413 33.187 62.8988 33.1679 62.9754L33.1298 63.3586ZM33.1679 64.1825L32.6721 68.0913C32.9391 68.1488 33.4158 68.1488 33.4921 68.1488C34.2931 68.1488 34.9987 67.8806 35.4755 67.3632C35.9332 66.8842 36.2002 66.1753 36.1811 65.313C36.1811 64.7765 36.0476 64.3167 35.7615 64.0101C35.4945 63.7035 35.1131 63.5119 34.6173 63.5311C34.0452 63.5502 33.5302 63.8185 33.1679 64.1825Z" fill="#C1C2D4"/>
<path d="M39.8997 62.5347C39.9188 62.4581 39.9569 62.4006 40.0332 62.4006H40.7579C40.8151 62.4006 40.8723 62.4581 40.8723 62.5347L40.5291 65.0257L42.2645 65.0065C42.7031 65.0065 43.2371 65.064 43.6185 65.2556C44.1144 65.4855 44.4004 65.8687 44.4195 66.5777C44.4195 67.3058 44.019 67.8806 43.485 68.1489C43.1227 68.3405 42.6459 68.4171 42.1882 68.4363L39.2513 68.4555C39.1941 68.4555 39.1369 68.398 39.1369 68.3405L39.8997 62.5347ZM42.0929 67.7465C42.398 67.7465 42.6841 67.689 42.9129 67.5741C43.2371 67.4016 43.485 67.0567 43.485 66.616C43.485 66.2328 43.3325 65.9837 43.0083 65.8304C42.7794 65.7155 42.4362 65.658 42.0929 65.658L40.4528 65.6771L40.1858 67.7465H42.0929ZM45.907 62.4773C45.9261 62.4198 45.9643 62.3431 46.0596 62.3431H46.7843C46.8415 62.3431 46.8987 62.4006 46.8987 62.4773L46.1359 68.2638C46.1359 68.3213 46.0787 68.3788 45.9833 68.3788H45.2586C45.2014 68.3788 45.1442 68.3213 45.1442 68.2638L45.907 62.4773Z" fill="#C1C2D4"/>
<path d="M54.2601 67.8038C54.241 67.8996 54.2029 67.9188 54.1266 67.9188H53.4019C53.3256 67.9188 53.2875 67.8805 53.2875 67.8038L53.8215 63.7034L49.5115 67.4014L49.4543 67.8421C49.4352 67.9379 49.397 67.9571 49.3208 67.9571H48.577C48.5198 67.9571 48.4626 67.9188 48.4816 67.8421L49.2445 62.0556C49.2635 61.9789 49.3017 61.9214 49.378 61.9214H50.1027C50.1789 61.9214 50.2171 61.9789 50.2171 62.0556L49.664 66.2135L53.974 62.4963L54.0312 62.0172C54.0503 61.9406 54.0885 61.8831 54.1647 61.8831H54.9085C54.9657 61.8831 55.0229 61.9406 55.0039 62.0172L54.2601 67.8038ZM53.6308 58.415C53.6498 58.3192 53.7261 58.2809 53.8024 58.2809H54.1266C54.241 58.2809 54.2792 58.3384 54.2792 58.415C54.1457 59.3347 53.421 60.1012 52.3339 60.1203C51.2278 60.1203 50.7129 59.3731 50.8274 58.4533C50.8274 58.3959 50.8846 58.3192 50.999 58.3192H51.3423C51.3995 58.3192 51.4567 58.3575 51.4567 58.4533C51.4376 59.0282 51.7237 59.4114 52.4102 59.4114C53.1158 59.3922 53.5163 58.9898 53.6308 58.415Z" fill="#C1C2D4"/>
<path d="M66.6181 61.27C66.7325 61.27 66.7707 61.3658 66.6372 61.5L63.7956 64.2974L65.9888 67.1141C66.065 67.229 66.0269 67.3248 65.9125 67.3248H65.1496C65.0352 67.3248 64.978 67.3057 64.9208 67.2099L63.0328 64.7381H62.0792L61.755 67.229C61.755 67.2865 61.6978 67.344 61.6215 67.344H60.8969C60.8396 67.344 60.7824 67.2865 60.8015 67.229L61.5643 61.4425C61.5834 61.385 61.6215 61.3083 61.7169 61.3083H62.4225C62.4988 61.3083 62.556 61.3658 62.5369 61.4425L62.2127 63.8951H63.09L65.5501 61.4233C65.6074 61.3467 65.6836 61.2892 65.7981 61.2892L66.6181 61.27Z" fill="#C1C2D4"/>
<path d="M71.5001 66.8268L71.5573 66.3669C71.0233 66.8268 70.4703 67.0376 69.7647 67.0567C69.307 67.0567 68.6776 66.8843 68.239 66.3861C67.8767 65.9837 67.6288 65.4089 67.6097 64.5275C67.6097 63.4353 68.0102 62.5923 68.6204 61.9791C69.4405 61.1935 70.5466 60.7911 71.5955 60.7911C72.1485 60.7911 72.6634 60.8295 73.0639 60.9061C73.1211 60.9253 73.1783 60.9827 73.1783 61.0977L72.4346 66.8268C72.4346 66.8843 72.3774 66.9418 72.3011 66.9418H71.6527C71.5383 66.9609 71.481 66.9226 71.5001 66.8268ZM71.6145 65.543L72.0913 61.6725C71.8052 61.6342 71.5955 61.6342 71.2522 61.6725C70.5466 61.7109 69.8219 61.9983 69.307 62.5348C68.8683 63.0138 68.5632 63.6844 68.5823 64.4892C68.5823 65.0832 68.7539 65.5239 69.0018 65.7921C69.307 66.137 69.7456 66.2711 70.0507 66.2711C70.5847 66.2711 71.0996 66.0987 71.6145 65.543Z" fill="#C1C2D4"/>
<path d="M80.4253 58.8556C79.7006 59.3538 78.5754 59.4496 77.6219 59.9861C76.9163 60.3885 76.4395 61.0208 76.2107 61.7489C76.7637 61.3274 77.4121 60.925 78.5754 60.9059C79.4336 60.9059 80.1202 61.1741 80.5969 61.6531C81.0165 62.0938 81.2644 62.707 81.2644 63.4542C81.2644 64.3165 80.9784 65.0446 80.5207 65.6194C79.9485 66.29 79.0713 66.6924 77.9842 66.6924C76.9926 66.6924 76.2679 66.405 75.772 65.8685C75.2762 65.3128 75.0092 64.5081 75.0092 63.55C74.9901 61.9789 75.5813 60.331 76.9735 59.4688C77.9842 58.7982 78.9569 58.779 79.7006 58.3575C80.0248 58.1467 80.1774 57.9168 80.2346 57.5719C80.2537 57.4952 80.2918 57.4569 80.3872 57.4569H81.0546C81.1309 57.4569 81.1691 57.5144 81.1691 57.6102C81.0546 58.0892 80.8449 58.5491 80.4253 58.8556ZM75.9437 63.5692C75.9437 64.2398 76.1153 64.853 76.4777 65.2745C76.7828 65.6769 77.2977 65.9068 78.0033 65.9068C78.7661 65.9068 79.3764 65.6002 79.796 65.1212C80.1202 64.6997 80.3109 64.1632 80.2918 63.4926C80.2918 62.9561 80.1011 62.4962 79.7578 62.1705C79.3955 61.8256 78.8996 61.6148 78.2894 61.6148C77.3549 61.6148 76.7446 61.9022 76.0581 62.5345C75.9818 62.8411 75.9437 63.2626 75.9437 63.5692Z" fill="#C1C2D4"/>
<path d="M83.7817 63.9522C83.8389 64.3738 84.0106 64.7761 84.3348 65.0827C84.6208 65.3701 85.0595 65.5234 85.6507 65.5234C86.1465 65.5234 86.7568 65.3893 87.1954 65.1019C87.2717 65.0444 87.3289 65.0636 87.348 65.121L87.5577 65.5809C87.5768 65.6384 87.5768 65.6959 87.5196 65.7342C87.0619 66.0408 86.3181 66.2515 85.4599 66.2515C84.7543 66.2515 84.1059 66.0408 83.6101 65.6192C83.0952 65.1785 82.79 64.5079 82.79 63.5882C82.79 62.6876 83.1142 61.7679 83.7054 61.1164C84.2966 60.4267 85.1548 59.986 86.1465 59.986C86.7568 59.986 87.2335 60.1584 87.5577 60.4075C87.8819 60.6757 88.0536 61.059 88.0536 61.4997C88.0536 62.4002 87.4814 63.0325 86.6233 63.4349C85.7842 63.8564 84.7353 63.9714 83.7817 63.9522ZM83.7626 63.3391C84.5064 63.3774 85.4027 63.3199 86.1084 63.0325C86.7949 62.7451 87.2526 62.2852 87.2335 61.6529C87.2335 61.423 87.1572 61.2314 86.9856 61.059C86.814 60.8674 86.5088 60.7715 86.1274 60.7715C85.4981 60.7715 84.8688 61.059 84.4301 61.5955C84.0487 62.0745 83.8008 62.6685 83.7626 63.3391Z" fill="#C1C2D4"/>
<path d="M91.0288 64.0102C90.7808 64.6616 90.4757 65.2556 90.0752 65.6963C89.9799 65.8113 89.9227 65.8304 89.7701 65.8304H89.1789C89.0454 65.8304 89.0263 65.7538 89.1407 65.5814C89.5603 65.064 89.8845 64.47 90.1134 63.8377C90.5329 62.7839 90.7236 61.6151 90.8762 60.4846L90.9525 59.9289C90.9525 59.8331 91.0097 59.7756 91.105 59.7756L95.5676 59.7373C95.6248 59.7373 95.6821 59.7948 95.6821 59.8714L94.9001 65.658C94.8811 65.7155 94.8429 65.773 94.7667 65.773H94.042C93.9847 65.773 93.9275 65.7155 93.9466 65.658L94.6141 60.5995L91.8107 60.6187C91.6581 61.7109 91.4483 62.8797 91.0288 64.0102Z" fill="#C1C2D4"/>
<path d="M97.4173 65.4279C97.3601 65.4279 97.3029 65.3704 97.3029 65.3129L98.0657 59.5263C98.0848 59.4497 98.1229 59.3922 98.1992 59.3922H98.9239C98.9811 59.3922 99.0383 59.4497 99.0383 59.5263L98.695 62.0172L100.43 61.9981C100.869 61.9981 101.403 62.0364 101.785 62.2472C102.28 62.4771 102.566 62.8603 102.585 63.5693C102.585 64.2974 102.204 64.8722 101.651 65.1405C101.289 65.3512 100.812 65.4087 100.354 65.4279H97.4173ZM101.174 62.8412C100.945 62.7262 100.602 62.6687 100.259 62.6687L98.6187 62.6879L98.3518 64.7572L100.259 64.7381C100.564 64.7381 100.85 64.6806 101.079 64.5656C101.403 64.3932 101.651 64.0483 101.651 63.6076C101.651 63.2435 101.498 62.9944 101.174 62.8412Z" fill="#C1C2D4"/>
<path d="M109.165 62.4005L105.637 62.4388L105.313 64.9297C105.293 65.0064 105.255 65.0447 105.198 65.0447H104.473C104.397 65.0447 104.34 65.0064 104.359 64.9297L105.122 59.1431C105.122 59.0665 105.179 59.009 105.255 59.009H105.98C106.037 59.009 106.094 59.0665 106.075 59.1431L105.751 61.5957L109.279 61.5574L109.604 59.1048C109.604 59.0282 109.661 58.9707 109.737 58.9707H110.462C110.519 58.9707 110.576 59.0282 110.557 59.1048L109.794 64.8914C109.775 64.968 109.737 65.0064 109.68 65.0064H108.955C108.879 65.0064 108.822 64.968 108.841 64.8914L109.165 62.4005Z" fill="#C1C2D4"/>
<path d="M112.96 58.6834C112.979 58.6068 113.017 58.5493 113.094 58.5493H113.818C113.875 58.5493 113.933 58.6068 113.933 58.6834L113.589 61.1743L115.325 61.1552C115.764 61.1552 116.297 61.2127 116.679 61.4043C117.175 61.6342 117.461 62.0174 117.48 62.7264C117.48 63.4545 117.079 64.0293 116.545 64.2976C116.183 64.4892 115.706 64.5658 115.249 64.585L112.312 64.6041C112.254 64.6041 112.197 64.5467 112.197 64.4892L112.96 58.6834ZM115.153 63.8952C115.458 63.8952 115.744 63.8377 115.973 63.7227C116.297 63.5503 116.545 63.2054 116.545 62.7647C116.545 62.3815 116.393 62.1324 116.069 61.9791C115.84 61.8641 115.497 61.8067 115.153 61.8067L113.513 61.8258L113.246 63.8952H115.153ZM118.967 58.6259C118.986 58.5685 119.025 58.4918 119.12 58.4918H119.845C119.902 58.4918 119.959 58.5493 119.959 58.6259L119.196 64.4125C119.196 64.47 119.139 64.5275 119.044 64.5275H118.319C118.262 64.5275 118.205 64.47 118.205 64.4125L118.967 58.6259Z" fill="#C1C2D4"/>
<path d="M127.321 63.9526C127.301 64.0484 127.263 64.0676 127.187 64.0676H126.462C126.386 64.0676 126.348 64.0293 126.348 63.9526L126.882 59.8522L122.572 63.5502L122.515 63.9909C122.496 64.0867 122.457 64.1059 122.381 64.1059H121.637C121.58 64.1059 121.523 64.0676 121.542 63.9909L122.305 58.2044C122.324 58.1277 122.362 58.0702 122.438 58.0702H123.163C123.239 58.0702 123.277 58.1277 123.277 58.2044L122.724 62.3623L127.034 58.6451L127.092 58.1661C127.111 58.0894 127.149 58.0319 127.225 58.0319H127.969C128.026 58.0319 128.083 58.0894 128.064 58.1661L127.321 63.9526ZM126.71 54.583C126.729 54.4872 126.806 54.4489 126.882 54.4489H127.206C127.321 54.4489 127.359 54.5063 127.359 54.583C127.225 55.5027 126.5 56.2691 125.413 56.2883C124.307 56.2883 123.792 55.541 123.907 54.6213C123.907 54.5638 123.964 54.4872 124.078 54.4872H124.422C124.479 54.4872 124.536 54.5255 124.536 54.6213C124.517 55.1961 124.803 55.5793 125.49 55.5793C126.176 55.541 126.596 55.1578 126.71 54.583Z" fill="#C1C2D4"/>
<path d="M171.317 61.6339C171.298 61.7297 171.259 61.7489 171.183 61.7489H170.458C170.382 61.7489 170.344 61.7106 170.344 61.6339L170.878 57.5335L166.568 61.2316L166.511 61.6723C166.492 61.7681 166.454 61.7872 166.377 61.7872H165.634C165.576 61.7872 165.519 61.7489 165.538 61.6723L166.301 55.8857C166.32 55.8091 166.358 55.7516 166.434 55.7516H167.159C167.235 55.7516 167.274 55.8091 167.274 55.8857L166.721 60.0436L171.031 56.3264L171.088 55.8474C171.107 55.7707 171.145 55.7133 171.221 55.7133H171.965C172.022 55.7133 172.079 55.7707 172.06 55.8474L171.317 61.6339Z" fill="#C1C2D4"/>
<path d="M178.525 58.7408L174.997 58.7791L174.673 61.27C174.654 61.3467 174.616 61.385 174.559 61.385H173.834C173.758 61.385 173.701 61.3467 173.72 61.27L174.482 55.4835C174.482 55.4068 174.54 55.3494 174.616 55.3494H175.341C175.398 55.3494 175.455 55.4068 175.436 55.4835L175.112 57.9361L178.64 57.8977L178.964 55.4452C178.964 55.3685 179.021 55.311 179.098 55.311H179.822C179.88 55.311 179.937 55.3685 179.918 55.4452L179.155 61.2317C179.136 61.3084 179.098 61.3467 179.04 61.3467H178.316C178.239 61.3467 178.182 61.3084 178.201 61.2317L178.525 58.7408Z" fill="#C1C2D4"/>
<path d="M187.241 54.9277C187.317 54.9277 187.355 54.9661 187.355 55.0619L187.26 55.675C187.241 55.7517 187.184 55.79 187.107 55.79L184.857 55.8091L184.19 60.8676C184.171 60.9634 184.132 60.9826 184.037 60.9826H183.312C183.236 60.9826 183.198 60.9251 183.198 60.8676L183.865 55.8091L181.615 55.8283C181.558 55.8283 181.501 55.7708 181.501 55.6942L181.596 55.1002C181.596 55.0427 181.653 54.9661 181.73 54.9661L187.241 54.9277Z" fill="#C1C2D4"/>
<path d="M188.996 58.4151C189.053 58.8367 189.224 59.2391 189.549 59.5456C189.835 59.833 190.273 59.9863 190.865 59.9863C191.36 59.9863 191.971 59.8522 192.409 59.5648C192.486 59.5073 192.543 59.5265 192.562 59.584L192.772 60.0438C192.791 60.1013 192.791 60.1588 192.733 60.1971C192.276 60.5037 191.532 60.7144 190.674 60.7144C189.968 60.7144 189.32 60.5037 188.824 60.0821C188.309 59.6414 188.004 58.9708 188.004 58.0511C188.004 57.1505 188.328 56.2308 188.919 55.5793C189.511 54.8896 190.369 54.4489 191.36 54.4489C191.971 54.4489 192.447 54.6213 192.772 54.8704C193.096 55.1386 193.267 55.5219 193.267 55.9626C193.267 56.8631 192.695 57.4954 191.837 57.8978C190.998 58.3193 189.949 58.4343 188.996 58.4151ZM188.957 57.802C189.701 57.8403 190.598 57.7828 191.303 57.4954C191.99 57.208 192.447 56.7482 192.428 56.1158C192.428 55.8859 192.352 55.6943 192.18 55.5219C192.009 55.3303 191.704 55.2344 191.322 55.2344C190.693 55.2344 190.064 55.5219 189.625 56.0584C189.263 56.5374 189.015 57.1314 188.957 57.802Z" fill="#C1C2D4"/>
<path d="M196.319 54.7745C196.776 54.4105 197.329 54.123 198.073 54.123C198.741 54.123 199.294 54.353 199.694 54.7745C200.114 55.2344 200.362 55.8667 200.362 56.6714C200.381 57.8402 199.999 58.7216 199.351 59.3539C198.664 60.0246 197.673 60.3695 196.586 60.3886C196.509 60.3886 196.071 60.3695 195.766 60.312L195.365 63.3011C195.365 63.3586 195.308 63.416 195.232 63.416H194.507C194.431 63.416 194.392 63.3586 194.392 63.2819L195.556 54.3913C195.575 54.3147 195.613 54.2572 195.708 54.2572H196.261C196.319 54.2572 196.376 54.3147 196.357 54.3913L196.319 54.7745ZM196.357 55.5793L195.861 59.4881C196.128 59.5456 196.605 59.5456 196.681 59.5456C197.482 59.5456 198.188 59.2773 198.664 58.76C199.122 58.2809 199.389 57.572 199.37 56.7098C199.37 56.1733 199.236 55.7134 198.95 55.4068C198.683 55.1002 198.302 54.9086 197.806 54.9278C197.253 54.947 196.738 55.2344 196.357 55.5793Z" fill="#C1C2D4"/>
<path d="M207.151 57.227L203.623 57.2654L203.299 59.7563C203.28 59.8329 203.241 59.8712 203.184 59.8712H202.459C202.383 59.8712 202.326 59.8329 202.345 59.7563L203.108 53.9697C203.108 53.893 203.165 53.8356 203.241 53.8356H203.966C204.023 53.8356 204.081 53.893 204.061 53.9697L203.737 56.4223L207.265 56.384L207.59 53.9314C207.59 53.8547 207.647 53.7972 207.723 53.7972H208.448C208.505 53.7972 208.562 53.8547 208.543 53.9314L207.78 59.7179C207.761 59.7946 207.723 59.8329 207.666 59.8329H206.941C206.865 59.8329 206.808 59.7946 206.827 59.7179L207.151 57.227Z" fill="#C1C2D4"/>
<path d="M211.099 57.2461C211.156 57.6676 211.327 58.07 211.652 58.3766C211.938 58.664 212.376 58.8173 212.967 58.8173C213.463 58.8173 214.074 58.6831 214.512 58.3957C214.588 58.3382 214.646 58.3574 214.665 58.4149L214.875 58.8747C214.894 58.9322 214.894 58.9897 214.836 59.028C214.379 59.3346 213.635 59.5454 212.777 59.5454C212.071 59.5454 211.423 59.3346 210.927 58.9131C210.412 58.4724 210.107 57.8017 210.107 56.882C210.107 55.9815 210.431 55.0617 211.022 54.4103C211.613 53.7205 212.472 53.2798 213.463 53.2798C214.074 53.2798 214.55 53.4522 214.875 53.7013C215.199 53.9696 215.37 54.3528 215.37 54.7935C215.37 55.694 214.798 56.3264 213.94 56.7287C213.101 57.1503 212.052 57.2652 211.099 57.2461ZM211.079 56.6329C211.823 56.6713 212.72 56.6138 213.425 56.3264C214.112 56.0389 214.569 55.5791 214.55 54.9468C214.55 54.7168 214.474 54.5252 214.302 54.3528C214.131 54.1612 213.826 54.0654 213.444 54.0654C212.815 54.0654 212.186 54.3528 211.747 54.8893C211.366 55.3683 211.118 55.9815 211.079 56.6329Z" fill="#C1C2D4"/>
<path d="M222.598 53.0499C222.674 53.0499 222.713 53.0883 222.713 53.1841L222.617 53.7972C222.598 53.8738 222.541 53.9122 222.465 53.9122L220.214 53.9313L219.547 58.9898C219.528 59.0856 219.49 59.1047 219.394 59.1047H218.67C218.593 59.1047 218.555 59.0473 218.555 58.9898L219.223 53.9313L216.972 53.9505C216.915 53.9505 216.858 53.893 216.858 53.8164L216.953 53.2224C216.953 53.1649 217.01 53.0883 217.087 53.0883L222.598 53.0499Z" fill="#C1C2D4"/>
<path d="M168.304 0.019043L163.803 2.93149L147.364 37.8234L150.892 42.307C150.892 42.307 155.488 33.493 160.084 25.4646C165.252 16.4207 170.688 8.21988 170.688 8.21988L168.304 0.019043ZM154.802 45.2578L147.116 55.2406L143.264 71.2207C143.264 71.2207 149.271 61.9469 153.333 56.0836C156.766 51.121 157.777 49.6839 157.777 49.6839L156.652 44.2039L154.802 45.2578Z" fill="#C58A2D"/>
<path d="M154.363 23.9508C158.33 15.6158 163.46 6.38032 168.323 -0.000244141C168.323 -0.000244141 165.634 0.402134 161.972 1.22605C158.215 2.06913 154.878 3.06549 152.723 3.85109C147.459 5.74801 143.359 8.90955 141.319 15.2518C141.7 14.0638 139.221 20.8659 137.905 28.4536C136.398 36.2521 135.578 43.3799 135.578 43.3607C138.401 45.3726 141.338 47.1929 143.912 48.7258C142.673 54.4357 141.986 63.8245 143.283 71.144C145.648 65.6831 147.993 60.4905 150.377 55.6812C152.57 51.255 154.382 47.9785 156.652 44.223C153.963 41.9812 151.35 39.7202 148.718 37.1909C149.939 34.0103 151.941 29.0476 154.363 23.9508Z" fill="#FFC418"/>
</svg>
